<svg width="25" height="24" viewBox="0 0 25 24" fill="none" xmlns="http://www.w3.org/2000/svg">
<g clip-path="url(#clip0_96_144)">
<path d="M11.0555 9H13.0555V6H16.0555V4H13.0555V1H11.0555V4H8.05554V6H11.0555V9ZM7.05554 18C5.95554 18 5.06554 18.9 5.06554 20C5.06554 21.1 5.95554 22 7.05554 22C8.15554 22 9.05554 21.1 9.05554 20C9.05554 18.9 8.15554 18 7.05554 18ZM17.0555 18C15.9555 18 15.0655 18.9 15.0655 20C15.0655 21.1 15.9555 22 17.0555 22C18.1555 22 19.0555 21.1 19.0555 20C19.0555 18.9 18.1555 18 17.0555 18ZM8.15554 13H15.6055C16.3555 13 17.0155 12.59 17.3555 11.97L21.2155 4.96L19.4755 4L15.6055 11H8.58554L4.32554 2H1.05554V4H3.05554L6.65554 11.59L5.30554 14.03C4.57554 15.37 5.53554 17 7.05554 17H19.0555V15H7.05554L8.15554 13Z" fill="white"/>
</g>
<defs>
<clipPath id="clip0_96_144">
<rect x="0.055542" width="24" height="24" fill="white"/>
</clipPath>
</defs>
</svg>
