<svg width="45" height="44" viewBox="0 0 45 44" fill="none" xmlns="http://www.w3.org/2000/svg">
<rect x="0.055542" width="44" height="44" rx="8" fill="#006A68"/>
<g clip-path="url(#clip0_12_471)">
<path d="M21.0555 19H23.0555V16H26.0555V14H23.0555V11H21.0555V14H18.0555V16H21.0555V19ZM17.0555 28C15.9555 28 15.0655 28.9 15.0655 30C15.0655 31.1 15.9555 32 17.0555 32C18.1555 32 19.0555 31.1 19.0555 30C19.0555 28.9 18.1555 28 17.0555 28ZM27.0555 28C25.9555 28 25.0655 28.9 25.0655 30C25.0655 31.1 25.9555 32 27.0555 32C28.1555 32 29.0555 31.1 29.0555 30C29.0555 28.9 28.1555 28 27.0555 28ZM18.1555 23H25.6055C26.3555 23 27.0155 22.59 27.3555 21.97L31.2155 14.96L29.4755 14L25.6055 21H18.5855L14.3255 12H11.0555V14H13.0555L16.6555 21.59L15.3055 24.03C14.5755 25.37 15.5355 27 17.0555 27H29.0555V25H17.0555L18.1555 23Z" fill="white"/>
</g>
<defs>
<clipPath id="clip0_12_471">
<rect x="10.0555" y="10" width="24" height="24" fill="white"/>
</clipPath>
</defs>
</svg>
